<?xml version="1.0" encoding="utf-8" standalone="no"?>
<!DOCTYPE svg PUBLIC "-//W3C//DTD SVG 1.1//EN"
  "http://www.w3.org/Graphics/SVG/1.1/DTD/svg11.dtd">
<svg height="345.6pt" version="1.1" viewBox="0 0 460.8 345.6" width="460.8pt" xmlns="http://www.w3.org/2000/svg" xmlns:xlink="http://www.w3.org/1999/xlink">
 <metadata>
  <rdf:RDF xmlns:cc="http://creativecommons.org/ns#" xmlns:dc="http://purl.org/dc/elements/1.1/" xmlns:rdf="http://www.w3.org/1999/02/22-rdf-syntax-ns#">
   <cc:Work>
    <dc:type rdf:resource="http://purl.org/dc/dcmitype/StillImage"/>
    <dc:date>2022-01-08T11:57:11.575530</dc:date>
    <dc:format>image/svg+xml</dc:format>
    <dc:creator>
     <cc:Agent>
      <dc:title>Matplotlib v3.4.2, https://matplotlib.org/</dc:title>
     </cc:Agent>
    </dc:creator>
   </cc:Work>
  </rdf:RDF>
 </metadata>
 <defs>
  <style type="text/css">*{stroke-linecap:butt;stroke-linejoin:round;}</style>
 </defs>
 <g id="figure_1">
  <g id="patch_1">
   <path d="M 0 345.6 
L 460.8 345.6 
L 460.8 0 
L 0 0 
z
" style="fill:#ffffff;"/>
  </g>
  <g id="patch_2">
   <path d="M 103.104 307.584 
L 369.216 307.584 
L 369.216 41.472 
L 103.104 41.472 
z
" style="fill:#ffffff;"/>
  </g>
  <g id="axes_1">
   <g id="line2d_1">
    <path clip-path="url(#p066a359ceb)" d="M 304.88868 148.814401 
L 304.927085 149.771533 
L 304.777509 150.534335 
L 304.445984 151.122167 
L 303.940656 151.554449 
L 303.271388 151.850179 
L 301.985922 152.078215 
L 300.4027 152.101902 
L 297.221764 151.859837 
L 291.097318 151.331848 
L 287.681516 151.248052 
L 284.061311 151.418701 
L 281.21059 151.761224 
L 278.23711 152.316694 
L 275.130838 153.104595 
L 271.881815 154.139093 
L 268.471505 155.42893 
L 264.887538 156.97548 
L 259.836387 159.425188 
L 254.496417 162.284319 
L 247.496526 166.344557 
L 240.281851 170.787624 
L 231.737483 176.287356 
L 222.475885 182.489752 
L 213.461992 188.797493 
L 207.306252 193.368278 
L 202.707425 197.052809 
L 199.459766 199.948026 
L 197.280945 202.169673 
L 195.549641 204.233915 
L 193.914699 206.257772 
L 193.592594 206.227546 
L 193.230061 205.94074 
L 192.318729 204.818819 
L 189.981 202.012247 
L 187.73292 199.615147 
L 185.692681 197.759028 
L 183.959956 196.493534 
L 182.85881 195.926974 
L 182.191975 195.818661 
L 181.928073 195.968799 
L 181.832464 196.312911 
L 181.924266 196.862599 
L 182.329814 197.8532 
L 183.261971 199.501331 
L 184.933609 202.030239 
L 187.225761 205.111006 
L 190.073641 208.561964 
L 192.861908 211.618788 
L 195.847375 214.545496 
L 198.364119 216.71249 
L 200.815117 218.561115 
L 203.124129 220.044382 
L 205.212711 221.108741 
L 206.671217 221.618808 
L 207.896258 221.789759 
L 208.636914 221.674331 
L 209.205462 221.332751 
L 209.587132 220.760267 
L 209.792471 219.999631 
L 209.827584 218.707234 
L 209.632045 217.109366 
L 209.000418 214.184668 
L 207.551858 208.805507 
L 203.389844 194.195759 
L 202.34877 191.529083 
L 201.117861 188.978502 
L 199.662435 186.552258 
L 197.955956 184.24706 
L 196.492694 182.59167 
L 194.262172 180.469116 
L 191.712479 178.417143 
L 188.868998 176.411735 
L 184.983384 173.942066 
L 172.988157 166.578562 
L 170.304978 164.606342 
L 168.049234 162.634756 
L 166.677418 161.155561 
L 165.598058 159.673404 
L 164.816748 158.184467 
L 164.328947 156.683489 
L 164.119821 155.163747 
L 164.16567 153.621719 
L 164.427557 152.059687 
L 165.02969 149.932132 
L 166.283111 146.604734 
L 169.756659 137.848417 
L 170.917087 134.211103 
L 172.203304 129.372719 
L 175.28467 117.040473 
L 176.616677 112.825571 
L 177.839941 109.595865 
L 179.304318 106.347621 
L 181.054842 103.123861 
L 182.403522 101.01236 
L 183.913726 98.949632 
L 185.590996 96.952947 
L 187.440857 95.0394 
L 189.475174 93.225783 
L 191.702312 91.528934 
L 194.127148 89.965737 
L 196.751084 88.55314 
L 199.572061 87.308154 
L 202.58456 86.247867 
L 205.779614 85.389443 
L 209.144803 84.750132 
L 212.664261 84.347268 
L 216.31867 84.198274 
L 220.085258 84.320659 
L 223.937798 84.732017 
L 227.85003 85.444995 
L 231.804577 86.44754 
L 235.772203 87.733203 
L 239.723355 89.293968 
L 243.62973 91.118456 
L 247.464254 93.191969 
L 251.201062 95.496515 
L 254.815463 98.010835 
L 258.283904 100.710421 
L 261.583931 103.56752 
L 264.694144 106.551125 
L 267.594148 109.626961 
L 270.264502 112.75745 
L 272.695471 115.906344 
L 274.897049 119.046223 
L 276.869763 122.147616 
L 278.613442 125.184438 
L 280.127663 128.134197 
L 281.411778 130.977987 
L 282.464943 133.700499 
L 283.28615 136.290034 
L 283.874261 138.73853 
L 284.228044 141.041598 
L 284.350574 143.199479 
L 284.245403 145.222164 
L 283.912731 147.122762 
L 283.354363 148.914419 
L 282.573737 150.610333 
L 281.575954 152.223768 
L 280.367793 153.768059 
L 278.957734 155.25662 
L 277.355962 156.702949 
L 274.618977 158.82342 
L 271.50575 160.93152 
L 266.820775 163.801906 
L 258.850096 168.364327 
L 239.76897 179.215997 
L 224.809914 188.05884 
L 213.170987 194.907831 
L 208.35521 197.503856 
L 205.03161 199.061852 
L 202.748711 199.930014 
L 200.74127 200.487894 
L 198.954475 200.769343 
L 197.33307 200.817236 
L 195.82966 200.667938 
L 194.069211 200.235016 
L 192.397679 199.573471 
L 190.463628 198.563635 
L 186.150066 195.94956 
L 182.932436 194.118641 
L 181.499459 193.538702 
L 180.777878 193.458583 
L 180.416477 193.621478 
L 180.28617 193.896605 
L 180.315628 194.487837 
L 180.591515 195.350835 
L 181.30009 196.822694 
L 182.699592 199.154252 
L 184.698782 202.04692 
L 187.72289 205.996405 
L 190.797378 209.670107 
L 194.213175 213.369485 
L 197.227512 216.306975 
L 200.297943 218.971897 
L 202.724451 220.819981 
L 205.059747 222.344463 
L 207.236685 223.490945 
L 209.186328 224.270509 
L 210.863843 224.694365 
L 211.924124 224.783203 
L 212.804856 224.678775 
L 213.501311 224.38354 
L 214.012643 223.899659 
L 214.341842 223.228966 
L 214.49567 222.372915 
L 214.448374 220.950134 
L 214.069839 218.760858 
L 211.492342 206.474127 
L 211.10394 202.946298 
L 210.886156 198.794164 
L 210.514535 188.903012 
L 210.176317 186.676304 
L 209.703718 185.113917 
L 209.0011 183.713106 
L 208.032996 182.441484 
L 206.772265 181.266447 
L 205.200088 180.155042 
L 203.305952 179.073851 
L 200.47999 177.71618 
L 195.696879 175.705471 
L 183.225517 170.595621 
L 178.1476 168.222826 
L 174.312002 166.150846 
L 171.647483 164.45423 
L 169.422415 162.735099 
L 168.071701 161.435142 
L 167.006348 160.127546 
L 166.228901 158.812106 
L 165.733543 157.487206 
L 165.505966 156.149807 
L 165.52375 154.800918 
L 165.746594 153.443124 
L 166.284885 151.609601 
L 167.219695 149.260508 
L 171.294027 139.746551 
L 172.2752 136.583176 
L 173.313283 132.346627 
L 176.856123 116.397551 
L 178.155051 112.302466 
L 179.377454 109.173877 
L 180.857575 106.039308 
L 182.631547 102.945412 
L 184.004469 100.92875 
L 185.545076 98.965882 
L 187.26362 97.072015 
L 189.167704 95.262898 
L 191.262296 93.554829 
L 193.549739 91.964673 
L 196.02976 90.509864 
L 198.699475 89.208423 
L 201.553392 88.078965 
L 204.583411 87.140707 
L 207.778814 86.413474 
L 211.126263 85.917707 
L 214.609788 85.674461 
L 218.211059 85.703319 
L 221.911232 86.004298 
L 225.687755 86.581338 
L 229.516485 87.437904 
L 233.372324 88.573609 
L 237.229258 89.98424 
L 241.060395 91.661801 
L 244.838 93.59456 
L 248.533519 95.767091 
L 252.117594 98.160333 
L 255.560078 100.751636 
L 258.830014 103.51481 
L 261.899264 106.420968 
L 264.762301 109.439724 
L 267.411468 112.535536 
L 269.838754 115.674813 
L 272.037426 118.826573 
L 274.002013 121.962378 
L 275.728293 125.056273 
L 277.213298 128.084732 
L 278.455326 131.026623 
L 279.453959 133.863171 
L 280.210099 136.577949 
L 280.726038 139.157254 
L 281.00326 141.599273 
L 281.039556 143.911959 
L 280.833963 146.103966 
L 280.38746 148.184564 
L 279.703011 150.163664 
L 278.785598 152.051846 
L 277.642249 153.860375 
L 276.282065 155.601218 
L 274.716226 157.287056 
L 272.957998 158.93129 
L 269.983843 161.34997 
L 266.634902 163.753904 
L 261.66201 166.997429 
L 254.812278 171.169369 
L 238.791484 180.571967 
L 219.605914 191.676074 
L 213.673608 194.872749 
L 209.512794 196.876225 
L 206.626888 198.065696 
L 204.070451 198.901858 
L 201.787956 199.403595 
L 199.728067 199.600212 
L 197.843618 199.53135 
L 196.09158 199.24689 
L 194.026488 198.653743 
L 192.050663 197.840772 
L 189.756563 196.656087 
L 180.889469 191.758134 
L 179.676394 191.41689 
L 179.136422 191.456365 
L 178.895507 191.648026 
L 178.806372 191.988765 
L 178.924631 192.68533 
L 179.470225 193.988097 
L 180.726652 196.222769 
L 182.64172 199.173666 
L 185.193119 202.749262 
L 188.330227 206.780938 
L 191.952872 211.044165 
L 195.247968 214.566591 
L 198.699141 217.888631 
L 201.50369 220.301399 
L 204.283935 222.420118 
L 206.976438 224.180391 
L 209.51292 225.524853 
L 211.816754 226.452177 
L 213.8271 226.994702 
L 215.502643 227.174569 
L 216.523696 227.08341 
L 217.336957 226.806768 
L 217.942599 226.351236 
L 218.345764 225.722576 
L 218.556481 224.925693 
L 218.589512 223.964708 
L 218.388551 222.449964 
L 217.721925 219.704506 
L 216.305432 214.005025 
L 215.751113 210.757744 
L 215.497407 208.050735 
L 215.473017 205.31165 
L 215.686403 202.617011 
L 216.115083 200.039437 
L 216.736763 197.63791 
L 217.529773 195.458052 
L 218.472946 193.532387 
L 219.543408 191.8813 
L 220.696214 190.516531 
L 221.895987 189.431035 
L 223.120767 188.610639 
L 224.358638 188.036303 
L 225.607745 187.683982 
L 226.868661 187.530038 
L 228.468198 187.577871 
L 230.117394 187.846647 
L 232.211906 188.405268 
L 235.754145 189.617025 
L 243.539873 192.320225 
L 249.120657 193.992926 
L 254.136302 195.292507 
L 259.919877 196.551009 
L 265.31834 197.48539 
L 269.990483 198.09494 
L 274.937195 198.527265 
L 280.094919 198.720185 
L 284.060723 198.663858 
L 288.071367 198.411219 
L 292.085888 197.949581 
L 296.057593 197.274426 
L 299.933919 196.389362 
L 303.656237 195.306117 
L 307.159624 194.044567 
L 310.384779 192.636732 
L 313.281253 191.12712 
L 315.79355 189.55506 
L 317.86543 187.9525 
L 318.973739 186.879691 
L 319.843521 185.81004 
L 320.457177 184.747736 
L 320.796834 183.695587 
L 320.844804 182.654999 
L 320.594737 181.623069 
L 320.045809 180.591373 
L 319.199205 179.552817 
L 318.060349 178.50244 
L 316.639025 177.437434 
L 314.009834 175.811713 
L 310.84562 174.159288 
L 307.237241 172.498457 
L 301.923846 170.324133 
L 297.679889 168.795499 
L 293.294607 167.428344 
L 288.826067 166.281319 
L 284.318275 165.404944 
L 279.800776 164.841419 
L 276.791628 164.656573 
L 273.787442 164.634608 
L 270.788433 164.782236 
L 267.786992 165.100216 
L 264.777782 165.587134 
L 261.75831 166.239664 
L 258.728939 167.052587 
L 254.174133 168.556703 
L 249.627846 170.373633 
L 245.127427 172.462456 
L 240.716414 174.77278 
L 236.418397 177.244457 
L 230.945769 180.690637 
L 225.862282 184.199064 
L 221.251631 187.668707 
L 217.177499 191.018331 
L 213.683801 194.186228 
L 210.783559 197.129568 
L 208.43172 199.83166 
L 206.589517 202.292009 
L 205.208322 204.507011 
L 204.226952 206.469422 
L 203.448861 208.550561 
L 202.896501 210.733824 
L 202.512014 212.604188 
L 202.448953 212.558691 
L 202.123894 212.003331 
L 198.177766 204.634365 
L 195.712013 200.586604 
L 193.49978 197.333311 
L 191.359623 194.548156 
L 188.926555 191.735568 
L 186.226052 188.94764 
L 183.328978 186.250984 
L 179.757472 183.248444 
L 175.179998 179.737333 
L 169.778447 175.593437 
L 168.676332 174.505168 
L 168.536696 174.115596 
L 168.739119 174.013845 
L 169.174631 174.10108 
L 170.074774 174.550339 
L 171.292737 175.41796 
L 172.785205 176.732052 
L 174.985371 179.022338 
L 177.514537 182.026575 
L 180.326636 185.72203 
L 183.360132 190.105224 
L 195.72868 208.427447 
L 199.129565 212.875932 
L 201.794918 216.047006 
L 204.556094 219.007906 
L 207.384399 221.722701 
L 210.247246 224.163153 
L 213.114159 226.307815 
L 215.956828 228.142058 
L 218.749153 229.658074 
L 221.467284 230.854866 
L 224.089645 231.738228 
L 226.596953 232.320708 
L 228.969319 232.624766 
L 231.188192 232.693094 
L 233.250791 232.566424 
L 235.761719 232.152259 
L 238.014339 231.514585 
L 240.036914 230.69642 
L 241.869987 229.723886 
L 243.970209 228.344306 
L 246.350171 226.475685 
L 249.171299 223.934977 
L 252.315088 220.797084 
L 256.039009 216.737004 
L 259.824466 212.253985 
L 263.385342 207.667044 
L 266.444361 203.37782 
L 269.611098 198.510485 
L 271.97123 194.487325 
L 274.228616 190.140912 
L 276.302647 185.483875 
L 277.544351 182.220958 
L 278.646444 178.846576 
L 279.586447 175.377518 
L 280.342396 171.833896 
L 280.892896 168.239047 
L 281.218308 164.617667 
L 281.316822 160.990996 
L 281.199489 157.397074 
L 280.880408 153.874801 
L 280.376828 150.460916 
L 279.709058 147.189946 
L 278.900374 144.094166 
L 277.976913 141.203585 
L 276.440491 137.312527 
L 274.820261 134.029258 
L 273.233496 131.420743 
L 271.756194 129.48065 
L 270.428748 128.172377 
L 269.637858 127.632013 
L 268.923845 127.34258 
L 268.283603 127.290859 
L 267.710112 127.462995 
L 267.192488 127.844517 
L 266.487802 128.775671 
L 265.580185 130.597997 
L 262.858904 136.681904 
L 261.032462 140.06058 
L 259.3218 142.783627 
L 257.286569 145.640967 
L 254.910214 148.618506 
L 252.190743 151.695796 
L 249.14117 154.846149 
L 245.789521 158.036684 
L 242.178825 161.228383 
L 237.061713 165.41171 
L 231.743377 169.44887 
L 226.400236 173.259203 
L 219.917326 177.601291 
L 213.868941 181.39604 
L 207.411382 185.177656 
L 201.141619 188.581431 
L 189.719275 194.626523 
L 188.361572 195.699949 
L 187.588751 196.576098 
L 187.085139 197.498194 
L 186.839017 198.488172 
L 186.83566 199.56207 
L 187.05728 200.729969 
L 187.618741 202.325663 
L 188.473179 204.055557 
L 189.854615 206.261632 
L 191.562019 208.531068 
L 193.498705 210.753741 
L 195.535879 212.791949 
L 197.541633 214.514432 
L 199.423265 215.835213 
L 200.828035 216.570227 
L 201.802945 216.885181 
L 202.611548 216.931705 
L 203.089356 216.77631 
L 203.441276 216.446889 
L 203.65336 215.934306 
L 203.728664 214.990091 
L 203.585753 213.767168 
L 203.118917 211.864204 
L 202.168274 209.078332 
L 200.574681 205.243632 
L 198.52339 200.949131 
L 196.445593 197.073763 
L 194.434318 193.827906 
L 192.580032 191.248426 
L 190.4868 188.701764 
L 188.159687 186.205756 
L 185.626879 183.779986 
L 182.252552 180.879499 
L 178.070444 177.629717 
L 169.978927 171.475515 
L 167.788661 169.474643 
L 166.558329 168.034065 
L 165.97197 167.050496 
L 165.687735 166.153503 
L 165.684588 165.351851 
L 165.924582 164.654382 
L 166.372847 164.068938 
L 166.997811 163.602342 
L 167.771263 163.260373 
L 168.991199 163.006257 
L 170.382466 162.990103 
L 171.89104 163.222948 
L 173.434227 163.72187 
L 174.963041 164.491295 
L 176.446674 165.53713 
L 177.871413 166.867418 
L 179.240648 168.492413 
L 180.574446 170.424485 
L 181.884765 172.671788 
L 183.518825 175.94051 
L 185.556425 180.549108 
L 191.7973 195.084194 
L 194.486978 200.597184 
L 196.921963 205.05369 
L 199.61262 209.442316 
L 201.790277 212.62706 
L 204.091422 215.670772 
L 206.498142 218.528004 
L 208.987097 221.152588 
L 211.529556 223.497696 
L 214.098414 225.52939 
L 216.66281 227.252328 
L 219.18939 228.678681 
L 221.649115 229.821625 
L 224.017266 230.695305 
L 226.273429 231.314781 
L 228.401482 231.696002 
L 230.389579 231.855771 
L 232.229632 231.813605 
L 234.445468 231.510659 
L 236.40214 231.00032 
L 238.122248 230.343731 
L 239.986606 229.38091 
L 241.604989 228.300148 
L 243.620388 226.658246 
L 246.742688 223.767608 
L 251.014281 219.560287 
L 254.839301 215.483423 
L 258.340102 211.406189 
L 261.664451 207.175449 
L 264.531349 203.212563 
L 267.492931 198.667472 
L 269.710119 194.855846 
L 271.860936 190.703766 
L 273.879531 186.233109 
L 275.691944 181.481822 
L 276.745664 178.18429 
L 277.645634 174.805342 
L 278.364527 171.367684 
L 278.87374 167.896912 
L 279.149559 164.415962 
L 279.202197 160.941549 
L 279.046828 157.512102 
L 278.699584 154.165305 
L 278.178352 150.936237 
L 277.502705 147.85732 
L 276.693818 144.958286 
L 275.7744 142.26617 
L 274.768609 139.805317 
L 273.701989 137.597413 
L 272.6014 135.661535 
L 271.494969 134.014217 
L 270.412045 132.669537 
L 269.377211 131.6275 
L 268.394986 130.866746 
L 267.464869 130.372912 
L 266.584002 130.131857 
L 265.747194 130.12961 
L 264.946964 130.352395 
L 264.173577 130.786649 
L 263.415068 131.419017 
L 262.273588 132.710319 
L 260.652357 134.997299 
L 255.847786 142.003104 
L 252.944067 145.754347 
L 250.404437 148.735601 
L 247.547901 151.805086 
L 244.379563 154.935794 
L 239.753414 159.145638 
L 234.788442 163.315208 
L 229.619732 167.359681 
L 224.3863 171.198249 
L 217.97099 175.590934 
L 211.962671 179.404156 
L 205.56096 183.178583 
L 197.760357 187.493312 
L 192.176528 190.634 
L 189.984023 192.098701 
L 188.651125 193.232572 
L 187.652086 194.379364 
L 187.117405 195.269386 
L 186.764325 196.200192 
L 186.588922 197.182107 
L 186.585571 198.222393 
L 186.835797 199.706992 
L 187.356402 201.303635 
L 188.344436 203.442823 
L 189.657297 205.708657 
L 191.256511 208.042987 
L 193.091769 210.372661 
L 195.096684 212.613683 
L 197.188939 214.671532 
L 199.270029 216.442397 
L 201.235678 217.848455 
L 203.014859 218.854821 
L 204.262667 219.350626 
L 205.322684 219.553844 
L 205.978054 219.504522 
L 206.501818 219.274765 
L 206.883991 218.857836 
L 207.115262 218.246998 
L 207.190579 217.440045 
L 207.079998 216.093088 
L 206.648975 214.000828 
L 205.774787 210.947533 
L 204.143786 206.12586 
L 201.60067 199.358005 
L 200.133414 195.897508 
L 198.771721 193.159793 
L 197.187666 190.472502 
L 195.349962 187.852438 
L 193.245883 185.312266 
L 190.881322 182.860629 
L 188.280599 180.502171 
L 185.443972 178.227627 
L 181.655682 175.481107 
L 170.027069 167.269173 
L 167.83252 165.338344 
L 166.526168 163.921328 
L 165.529686 162.527859 
L 164.82769 161.160129 
L 164.402571 159.819368 
L 164.234915 158.505477 
L 164.303458 157.216989 
L 164.585065 155.951043 
L 165.054733 154.703348 
L 165.926811 153.058023 
L 167.565758 150.614673 
L 170.417627 146.470812 
L 171.933283 143.809141 
L 173.020161 141.407171 
L 173.922697 138.767786 
L 174.660612 135.831955 
L 175.402844 131.849732 
L 177.359123 120.393084 
L 178.261323 116.610461 
L 179.133167 113.671266 
L 180.217973 110.676289 
L 181.546445 107.662352 
L 183.167472 104.671563 
L 184.434064 102.712719 
L 185.862545 100.798336 
L 187.461749 98.943244 
L 189.238351 97.162935 
L 191.196877 95.473566 
L 193.339715 93.891974 
L 195.667124 92.435682 
L 198.177237 91.122911 
L 200.866061 89.972583 
L 203.727486 89.004336 
L 206.753269 88.238526 
L 209.933041 87.696236 
L 213.252368 87.391614 
L 216.694075 87.332643 
L 220.240964 87.531634 
L 223.873424 87.997368 
L 227.569471 88.735083 
L 231.304799 89.746495 
L 235.052821 91.029826 
L 238.784721 92.57984 
L 242.469492 94.387892 
L 246.073973 96.441979 
L 249.563705 98.72686 
L 252.915667 101.222026 
L 256.109143 103.899104 
L 259.124169 106.728859 
L 261.943454 109.682113 
L 264.552292 112.729673 
L 266.938485 115.842248 
L 269.092288 118.99036 
L 271.006366 122.144252 
L 272.675767 125.273794 
L 274.097913 128.348397 
L 275.272153 131.34232 
L 276.196384 134.243242 
L 276.868428 137.042274 
L 277.287178 139.733063 
L 277.452652 142.311834 
L 277.366044 144.777446 
L 277.02977 147.131441 
L 276.447511 149.378086 
L 275.624243 151.524422 
L 274.566271 153.580299 
L 273.283106 155.557266 
L 271.784923 157.469669 
L 270.079504 159.333524 
L 268.176957 161.162509 
L 264.981509 163.864608 
L 261.423426 166.540914 
L 256.228028 170.094313 
L 249.270202 174.512319 
L 239.265449 180.564122 
L 227.19441 187.593351 
L 220.190895 191.4697 
L 215.129981 194.041995 
L 211.57371 195.654598 
L 208.402044 196.873401 
L 205.564047 197.707389 
L 203.009853 198.179524 
L 200.690684 198.326617 
L 198.558855 198.199203 
L 196.565722 197.852792 
L 194.666987 197.316034 
L 192.382142 196.419255 
L 189.727398 195.102817 
L 179.333991 189.590844 
L 178.253517 189.306802 
L 177.681395 189.34929 
L 177.445645 189.556989 
L 177.375619 189.917621 
L 177.546523 190.674098 
L 178.19724 192.118937 
L 179.633232 194.633748 
L 181.788377 197.980933 
L 184.651193 202.044517 
L 187.556061 205.823895 
L 191.561006 210.614969 
L 195.216219 214.601245 
L 198.281196 217.644196 
L 201.413063 220.460029 
L 204.552907 222.969374 
L 207.637251 225.103021 
L 209.873481 226.420937 
L 212.010348 227.473505 
L 214.644777 228.47681 
L 216.969445 229.069915 
L 218.934669 229.291435 
L 220.153034 229.235027 
L 221.144487 229.00305 
L 221.908164 228.607981 
L 222.448898 228.061169 
L 222.777155 227.372816 
L 222.908949 226.551955 
L 222.862425 225.609368 
L 222.549928 224.184234 
L 221.702394 221.666794 
L 220.114908 217.046518 
L 219.35906 214.100159 
L 218.952286 211.597857 
L 218.805108 209.012559 
L 218.893049 207.059318 
L 219.154678 205.131737 
L 219.59107 203.260798 
L 220.202019 201.474394 
L 220.986037 199.79743 
L 221.94035 198.25192 
L 223.060866 196.857053 
L 224.34098 195.629158 
L 225.765413 194.578931 
L 227.322963 193.710852 
L 229.006665 193.026029 
L 230.813003 192.522316 
L 232.741905 192.194264 
L 234.796737 192.033092 
L 237.74297 192.057091 
L 240.936221 192.328735 
L 245.306807 192.966677 
L 252.197241 194.269244 
L 262.475011 196.237467 
L 268.852883 197.221649 
L 274.243989 197.815597 
L 279.831432 198.157225 
L 284.107301 198.20724 
L 288.415542 198.051478 
L 292.713818 197.665889 
L 296.952448 197.031911 
L 301.078978 196.157392 
L 305.04912 195.062182 
L 308.81428 193.771541 
L 312.320472 192.316471 
L 315.507855 190.733894 
L 318.31027 189.066901 
L 320.654774 187.365064 
L 322.481214 185.679671 
L 323.394046 184.573216 
L 324.043094 183.477865 
L 324.414804 182.390643 
L 324.499182 181.307954 
L 324.289915 180.225574 
L 323.784498 179.138643 
L 322.984366 178.041663 
L 321.895044 176.928498 
L 320.52629 175.792377 
L 317.98137 174.028803 
L 314.916324 172.179777 
L 310.216771 169.626454 
L 305.04717 167.063425 
L 299.62154 164.607724 
L 294.111154 162.394495 
L 290.000961 160.983283 
L 285.933975 159.848085 
L 281.895911 159.033079 
L 279.212922 158.68463 
L 276.532776 158.500908 
L 273.852102 158.487108 
L 271.167881 158.646349 
L 268.477447 158.9797 
L 265.77848 159.486214 
L 263.065479 160.163137 
L 258.949778 161.480874 
L 254.763653 163.131027 
L 250.505459 165.075915 
L 246.190146 167.274118 
L 240.404473 170.52054 
L 234.696076 174.019285 
L 229.222034 177.639501 
L 222.85263 182.142355 
L 217.178917 186.463013 
L 212.32739 190.482465 
L 209.07843 193.432285 
L 206.389723 196.129821 
L 204.228197 198.58075 
L 202.532907 200.795998 
L 201.256109 202.787138 
L 200.348302 204.562984 
L 199.644881 206.485914 
L 199.300536 208.076652 
L 199.164461 209.734468 
L 199.269562 211.041503 
L 199.079866 210.545363 
L 198.07131 208.442293 
L 196.268273 205.215972 
L 194.186598 201.933502 
L 191.917195 198.767751 
L 189.625818 195.953179 
L 187.012941 193.10429 
L 184.147912 190.30984 
L 181.170874 187.693279 
L 177.830667 185.056172 
L 174.251607 182.502919 
L 172.254986 181.298083 
L 171.748365 181.166748 
L 171.752165 181.343382 
L 172.136648 181.896191 
L 176.876051 187.746076 
L 181.165388 193.585134 
L 189.517677 205.047532 
L 193.603695 210.267208 
L 197.087817 214.36087 
L 200.725293 218.23754 
L 203.527414 220.933129 
L 206.368553 223.400224 
L 209.223724 225.602873 
L 212.06523 227.510932 
L 214.862361 229.099958 
L 217.578295 230.363927 
L 220.179746 231.327545 
L 222.639506 232.017874 
L 224.935748 232.460881 
L 227.051986 232.68139 
L 228.977036 232.703048 
L 230.704972 232.548303 
L 232.23492 232.23868 
L 233.96638 231.64578 
L 235.366028 230.9234 
L 236.464779 230.13356 
L 237.464856 229.119204 
L 238.112854 228.12277 
L 238.476235 227.190997 
L 238.640265 226.209633 
L 238.591666 225.28235 
L 238.337785 224.427831 
L 238.027866 223.491523 
L 238.426656 223.399398 
L 240.297904 223.030315 
L 242.161779 222.4024 
L 244.199178 221.452445 
L 246.482635 220.11515 
L 248.876753 218.417744 
L 251.214967 216.476323 
L 253.887754 213.947515 
L 256.935501 210.714938 
L 259.633334 207.557459 
L 262.516921 203.85494 
L 265.512412 199.588294 
L 267.770857 196.015122 
L 269.979255 192.128772 
L 272.065633 187.950081 
L 273.345751 185.006476 
L 274.50973 181.944297 
L 275.536657 178.774822 
L 276.408034 175.513446 
L 277.107813 172.1796 
L 277.622425 168.796665 
L 277.940791 165.391865 
L 278.054323 161.99616 
L 277.956911 158.644108 
L 277.652008 155.365364 
L 277.161051 152.193473 
L 276.50757 149.166152 
L 275.715322 146.316733 
L 274.808225 143.674169 
L 273.810302 141.263064 
L 272.745632 139.103732 
L 271.638301 137.212261 
L 270.512374 135.600609 
L 269.391869 134.276703 
L 268.300699 133.243949 
L 267.252133 132.494258 
L 266.243167 132.013369 
L 265.268401 131.787135 
L 264.321065 131.801593 
L 263.393054 132.042995 
L 262.474946 132.497819 
L 261.556016 133.152772 
L 260.149451 134.481912 
L 258.148264 136.834214 
L 251.668087 144.914649 
L 248.233289 148.792564 
L 244.276566 152.881539 
L 240.988626 156.005897 
L 236.238259 160.173641 
L 231.201676 164.261773 
L 226.03312 168.173259 
L 220.876585 171.830781 
L 214.650382 175.959986 
L 207.811086 180.182587 
L 200.162875 184.608696 
L 193.104154 188.719769 
L 190.604048 190.420676 
L 189.069322 191.712478 
L 187.913519 193.001243 
L 187.282394 193.991852 
L 186.849519 195.021233 
L 186.609982 196.101927 
L 186.557473 197.242924 
L 186.684268 198.449633 
L 187.116188 200.163373 
L 187.824585 201.990843 
L 189.051856 204.412529 
L 190.617193 206.939971 
L 192.474212 209.50114 
L 194.558678 212.010134 
L 196.788535 214.367525 
L 199.064153 216.460791 
L 201.258356 218.179094 
L 203.283818 219.487504 
L 205.085579 220.36994 
L 206.328931 220.752404 
L 207.365948 220.828996 
L 207.991712 220.673379 
L 208.474454 220.324068 
L 208.802882 219.769862 
L 208.965846 218.998389 
L 208.929114 217.639054 
L 208.572014 215.511319 
L 207.792889 212.399038 
L 205.93804 206.147629 
L 202.80531 196.345476 
L 201.460969 192.916252 
L 200.167499 190.266878 
L 198.629159 187.715426 
L 196.817193 185.267685 
L 194.720154 182.922479 
L 192.344017 180.671693 
L 189.69656 178.500027 
L 186.77479 176.387363 
L 182.057761 173.292659 
L 172.684642 167.237154 
L 170.010096 165.240741 
L 168.290511 163.751904 
L 166.870513 162.266845 
L 165.752003 160.78356 
L 164.925379 159.302694 
L 164.377919 157.823459 
L 164.093695 156.343603 
L 164.053503 154.859379 
L 164.234826 153.365517 
L 164.61182 151.855205 
L 165.367308 149.80175 
L 167.090509 146.067238 
L 169.177652 141.431947 
L 170.631172 137.572309 
L 171.740619 134.029583 
L 172.960096 129.304278 
L 175.875109 117.206725 
L 177.150325 113.060504 
L 178.338387 109.883145 
L 179.776756 106.688376 
L 181.507229 103.517807 
L 182.841839 101.440194 
L 184.333068 99.408658 
L 185.990141 97.438977 
L 187.821468 95.547851 
L 189.834656 93.752912 
L 192.036522 92.072727 
L 194.433099 90.526807 
L 197.021085 89.132589 
L 199.79337 87.907511 
L 202.747301 86.870758 
L 205.876805 86.040029 
L 209.172398 85.431536 
L 212.621203 85.060001 
L 216.206967 84.938655 
L 219.910072 85.079239 
L 223.707564 85.492007 
L 227.57316 86.185728 
L 231.477286 87.167696 
L 235.394658 88.436475 
L 239.298678 89.980702 
L 243.157972 91.788588 
L 246.943248 93.845224 
L 250.627242 96.132621 
L 254.184673 98.629724 
L 257.592187 101.312419 
L 260.8283 104.153533 
L 263.873343 107.122812 
L 266.709406 110.186889 
L 269.320295 113.309256 
L 271.699375 116.456768 
L 273.848069 119.59998 
L 275.765129 122.709659 
L 277.44928 125.760088 
L 278.899238 128.729052 
L 280.113745 131.597828 
L 281.091591 134.351188 
L 281.831648 136.977419 
L 282.332912 139.46834 
L 282.594596 141.819337 
L 282.621024 144.031423 
L 282.414241 146.115472 
L 281.97441 148.084263 
L 281.303547 149.950582 
L 280.405557 151.727243 
L 279.286254 153.427097 
L 277.953388 155.063041 
L 276.416657 156.648025 
L 273.755347 158.958405 
L 270.703409 161.228262 
L 267.292767 163.50439 
L 262.257491 166.609894 
L 252.454608 172.334509 
L 229.474081 185.709604 
L 215.7001 193.682845 
L 210.426477 196.482607 
L 206.763401 198.182538 
L 204.229522 199.151564 
L 201.98725 199.790083 
L 199.983888 200.123821 
L 198.170037 200.187894 
L 196.499578 200.026736 
L 194.548913 199.576794 
L 192.697421 198.894679 
L 190.558791 197.842425 
L 187.471492 196.024882 
L 183.395116 193.653101 
L 181.383682 192.710192 
L 180.286806 192.429339 
L 179.807666 192.501644 
L 179.601529 192.712262 
L 179.528883 193.058111 
L 179.650682 193.753508 
L 180.175443 195.037742 
L 181.376109 197.21734 
L 183.209201 200.07066 
L 185.659672 203.502546 
L 188.684701 207.341875 
L 192.183621 211.363069 
L 195.35103 214.668403 
L 198.647443 217.774412 
L 201.30854 220.023997 
L 203.929864 221.994962 
L 206.451665 223.628819 
L 208.811315 224.872679 
L 210.94191 225.689254 
L 212.775464 226.119303 
L 213.93262 226.205198 
L 214.892644 226.096806 
L 215.651716 225.801055 
L 216.210998 225.324158 
L 216.576587 224.671584 
L 216.759439 223.848017 
L 216.77527 222.857311 
L 216.572417 221.28137 
L 215.919879 218.399386 
L 214.556283 212.456468 
L 214.015755 209.113523 
L 213.699411 205.655674 
L 213.654835 202.887544 
L 213.812213 200.193266 
L 214.233187 197.029129 
L 214.823131 194.178587 
L 215.648503 191.250852 
L 216.632487 188.547054 
L 217.94512 185.062371 
L 217.967008 184.418362 
L 217.744316 183.941071 
L 217.253059 183.576733 
L 216.289743 183.209681 
L 213.722249 182.570565 
L 207.389864 181.008941 
L 202.013179 179.444333 
L 195.474105 177.303478 
L 188.892243 174.930172 
L 182.924345 172.524306 
L 177.998736 170.276284 
L 174.284311 168.33049 
L 171.731468 166.769662 
L 169.676251 165.228816 
L 168.474019 164.086991 
L 167.550214 162.969277 
L 166.892576 161.884228 
L 166.487746 160.837661 
L 166.321214 159.83262 
L 166.377293 158.869325 
L 166.63909 157.945144 
L 167.088501 157.054562 
L 167.931441 155.914176 
L 169.203367 154.589501 
L 171.645398 152.439046 
L 174.291896 150.033259 
L 175.402231 148.697871 
L 176.114722 147.501926 
L 176.642076 146.184279 
L 177.003879 144.701477 
L 177.247853 142.63492 
L 177.340477 139.723662 
L 177.494351 128.27737 
L 177.821431 124.284299 
L 178.296053 120.81586 
L 179.036057 117.14278 
L 179.81416 114.283838 
L 180.815848 111.366321 
L 182.076983 108.426237 
L 183.641604 105.503817 
L 184.871335 103.586949 
L 186.260686 101.711439 
L 187.816705 99.892051 
L 189.544862 98.144319 
L 191.449068 96.484551 
L 193.531678 94.929832 
L 195.7935 93.498037 
L 198.233803 92.20783 
L 200.850315 91.078681 
L 203.638861 90.130537 
L 206.586944 89.37753 
L 209.684445 88.835816 
L 212.920944 88.521413 
L 216.282855 88.447743 
L 219.753458 88.625633 
L 223.312934 89.06332 
L 226.938404 89.766467 
L 230.60397 90.738176 
L 234.280749 91.97902 
L 237.936911 93.487073 
L 241.537719 95.257943 
L 245.055359 97.279498 
L 248.466589 99.530015 
L 251.745435 101.987075 
L 254.8686 104.626873 
L 257.815373 107.424189 
L 260.567541 110.352338 
L 263.109315 113.383104 
L 265.427266 116.486673 
L 267.510271 119.631543 
L 269.349477 122.784441 
L 270.939336 125.911851 
L 272.27892 128.991175 
L 273.365 132.005658 
L 274.194966 134.941167 
L 274.767203 137.786364 
L 275.081143 140.532745 
L 275.137319 143.174677 
L 274.937408 145.709449 
L 274.484276 148.137312 
L 273.782017 150.461524 
L 272.836012 152.68839 
L 271.656867 154.827877 
L 270.253903 156.895062 
L 268.635239 158.904434 
L 266.811511 160.868353 
L 264.795883 162.797033 
L 261.44764 165.641024 
L 257.76711 168.441434 
L 252.476541 172.118178 
L 245.520944 176.612143 
L 237.11089 181.75711 
L 227.866625 187.145305 
L 220.820179 191.004529 
L 215.690856 193.545556 
L 212.067703 195.121862 
L 208.818564 196.296407 
L 205.891648 197.07762 
L 203.878364 197.418773 
L 201.99914 197.56653 
L 199.669867 197.497437 
L 197.503864 197.179271 
L 195.45356 196.663565 
L 192.993984 195.78048 
L 190.138756 194.453099 
L 186.026237 192.207878 
L 181.139715 189.567044 
L 178.88785 188.551806 
L 177.690208 188.192993 
L 177.035146 188.17651 
L 176.745307 188.343728 
L 176.643294 188.678225 
L 176.72595 189.186509 
L 177.124051 190.165945 
L 178.086559 191.918377 
L 180.293919 195.388168 
L 183.469761 199.953955 
L 186.908522 204.545287 
L 190.908203 209.515818 
L 194.587445 213.694558 
L 197.699767 216.91482 
L 200.908214 219.921791 
L 204.155182 222.627018 
L 207.376032 224.949685 
L 209.73182 226.396505 
L 211.999471 227.571681 
L 214.824938 228.742479 
L 217.359207 229.498791 
L 219.54805 229.878666 
L 221.354927 229.91625 
L 222.447425 229.738125 
L 223.312672 229.395793 
L 223.954763 228.89924 
L 224.383035 228.25775 
L 224.601414 227.503999 
L 224.623137 226.651763 
L 224.384656 225.359533 
L 223.741369 223.491227 
L 220.87199 216.223376 
L 220.273147 213.87938 
L 219.896618 211.409855 
L 219.780872 208.881906 
L 219.884754 206.986727 
L 220.164851 205.121918 
L 220.630665 203.313678 
L 221.2899 201.58783 
L 222.148485 199.969917 
L 223.21012 198.485306 
L 224.457442 197.157098 
L 225.871213 195.999567 
L 227.441409 195.021842 
L 229.161131 194.229015 
L 231.026585 193.622106 
L 233.037063 193.198031 
L 235.194936 192.94957 
L 237.503386 192.866272 
L 240.820554 192.994198 
L 244.426989 193.365634 
L 249.363799 194.108188 
L 268.504953 197.291045 
L 274.00996 197.887347 
L 279.711844 198.235813 
L 284.073258 198.290726 
L 288.466428 198.138028 
L 292.848788 197.752894 
L 297.17069 197.114283 
L 301.374618 196.226001 
L 305.419848 195.11215 
L 309.262804 193.800861 
L 312.853483 192.324138 
L 316.134953 190.718035 
L 319.04284 189.022906 
L 321.504809 187.283692 
L 322.85886 186.124139 
L 323.959015 184.98253 
L 324.806643 183.863163 
L 325.386622 182.759605 
L 325.685174 181.665153 
L 325.692649 180.573217 
L 325.403659 179.47731 
L 324.817223 178.371052 
L 323.936918 177.248171 
L 322.771028 176.102511 
L 320.516808 174.328157 
L 317.716207 172.469275 
L 313.297751 169.850011 
L 307.055766 166.4713 
L 301.77127 163.827146 
L 296.421807 161.380384 
L 292.44212 159.764247 
L 288.526972 158.402583 
L 284.667458 157.341409 
L 282.115703 156.819441 
L 279.574671 156.455996 
L 277.039362 156.25759 
L 274.505121 156.228826 
L 271.967637 156.372421 
L 269.422951 156.689226 
L 266.866685 157.178086 
L 264.287925 157.834314 
L 260.355247 159.117458 
L 256.327562 160.734523 
L 252.20062 162.652728 
L 247.987076 164.833822 
L 242.287816 168.074579 
L 236.604208 171.585615 
L 229.688328 176.1494 
L 223.205775 180.690759 
L 217.365096 185.032357 
L 212.308514 189.052568 
L 208.112253 192.685098 
L 205.380763 195.302151 
L 203.158753 197.674057 
L 201.407043 199.818255 
L 200.08251 201.749121 
L 199.1327 203.477039 
L 198.377274 205.361004 
L 197.97125 206.943828 
L 197.799708 208.463093 
L 197.873141 209.697592 
L 198.084477 210.413284 
L 197.721821 209.454638 
L 196.662609 207.286916 
L 195.002465 204.419943 
L 192.965202 201.383887 
L 190.705859 198.451198 
L 187.998694 195.348531 
L 184.952475 192.239978 
L 182.233424 189.753139 
L 179.160952 187.25426 
L 176.092906 185.054059 
L 174.142395 183.901379 
L 173.322411 183.614725 
L 173.098756 183.683414 
L 173.094654 183.945719 
L 173.452685 184.613622 
L 175.320828 187.146617 
L 181.15571 195.115857 
L 187.697122 204.001754 
L 191.549342 208.915674 
L 194.86748 212.857589 
L 198.35455 216.660181 
L 201.964441 220.204124 
L 204.72053 222.630451 
L 207.490493 224.817358 
L 210.246869 226.734284 
L 212.960057 228.356476 
L 215.596937 229.666441 
L 218.120081 230.674993 
L 220.498284 231.410304 
L 222.706225 231.899436 
L 224.724295 232.167964 
L 226.538569 232.239949 
L 228.140768 232.137906 
L 229.528217 231.882794 
L 230.703244 231.494466 
L 231.934213 230.825721 
L 232.8026 230.051726 
L 233.339929 229.22622 
L 233.576154 228.38689 
L 233.539664 227.555448 
L 233.257303 226.737733 
L 232.75622 225.933398 
L 231.865594 224.953282 
L 230.475269 223.778064 
L 225.346441 219.723805 
L 223.740416 218.067312 
L 222.530079 216.520031 
L 221.435422 214.769381 
L 220.500225 212.825972 
L 219.766625 210.715148 
L 219.275309 208.476626 
L 219.08961 206.745775 
L 219.078025 204.999126 
L 219.238928 203.267007 
L 219.563898 201.579553 
L 220.045332 199.963312 
L 220.676415 198.441328 
L 221.45109 197.033208 
L 222.364028 195.75518 
L 223.410598 194.62013 
L 224.584022 193.638098 
L 225.8682 192.815462 
L 227.254215 192.152841 
L 228.737085 191.648498 
L 230.315148 191.298514 
L 232.570651 191.06105 
L 235.011826 191.066068 
L 237.654649 191.289729 
L 241.271712 191.841646 
L 246.135179 192.82962 
L 261.23797 196.082509 
L 267.256666 197.090827 
L 272.383589 197.73102 
L 277.735514 198.150429 
L 281.858031 198.278272 
L 286.036223 198.212456 
L 290.21336 197.929733 
L 294.349861 197.422609 
L 298.417277 196.690867 
L 302.37881 195.741525 
L 306.188984 194.588848 
L 309.793268 193.254417 
L 313.127647 191.76727 
L 316.118153 190.164108 
L 318.680357 188.489562 
L 320.103898 187.359309 
L 321.266184 186.238421 
L 322.174737 185.138157 
L 322.822166 184.053434 
L 323.193125 182.97765 
L 323.276234 181.904791 
L 323.064198 180.829431 
L 322.553941 179.746741 
L 321.746743 178.652491 
L 320.648382 177.543067 
L 319.269275 176.415479 
L 316.708759 174.685087 
L 313.623833 172.903563 
L 308.866525 170.456458 
L 303.607264 168.02348 
L 298.061268 165.739888 
L 293.814825 164.205826 
L 289.551209 162.886627 
L 285.303469 161.836681 
L 281.090735 161.106085 
L 278.293879 160.814036 
L 275.497125 160.686499 
L 272.694429 160.728342 
L 269.881398 160.942303 
L 267.055286 161.329021 
L 264.214995 161.887051 
L 261.361067 162.612899 
L 258.495685 163.501048 
L 254.176792 165.12461 
L 249.82842 167.063688 
L 245.471133 169.257069 
L 239.69587 172.477235 
L 234.035463 175.919968 
L 228.589793 179.471238 
L 223.477804 183.029266 
L 218.837901 186.504179 
L 214.800031 189.815671 
L 211.328553 192.909312 
L 208.417731 195.778229 
L 206.058532 198.418786 
L 204.222345 200.826833 
L 202.860819 202.997817 
L 201.905752 204.926882 
L 201.147423 206.990285 
L 200.650284 208.969382 
L 200.467707 210.620986 
L 200.523471 211.727215 
L 200.390466 211.429748 
L 198.873757 208.321177 
L 196.786807 204.589034 
L 194.483215 200.945386 
L 192.368746 197.991994 
L 189.867709 194.909897 
L 187.003319 191.784965 
L 183.875036 188.740984 
L 180.655393 185.936715 
L 177.004798 183.070001 
L 172.077392 179.503361 
L 170.279375 178.25469 
L 171.042029 178.878094 
L 172.611282 180.4199 
L 174.90376 183.025946 
L 177.827997 186.722501 
L 181.947719 192.315789 
L 192.957233 207.669579 
L 196.377282 211.99487 
L 199.971825 216.168379 
L 202.763799 219.1125 
L 205.619875 221.826524 
L 208.520581 224.252476 
L 211.432026 226.373237 
L 214.317063 228.186783 
L 217.142522 229.694562 
L 219.879233 230.90146 
L 222.502026 231.815753 
L 224.989729 232.449066 
L 227.325157 232.816331 
L 229.495086 232.935748 
L 231.487162 232.840298 
L 233.861021 232.460268 
L 235.92566 231.867919 
L 237.70441 231.128581 
L 239.229889 230.288221 
L 240.843831 229.139809 
L 242.468958 227.702248 
L 245.091543 225.00546 
L 250.508111 219.465554 
L 254.087535 215.665315 
L 257.387235 211.84887 
L 260.565762 207.852933 
L 263.354294 204.049744 
L 266.283617 199.680597 
L 268.506112 196.031461 
L 270.682277 192.072364 
L 272.737588 187.819784 
L 274.586561 183.298213 
L 275.665037 180.152405 
L 276.592957 176.914467 
L 277.350113 173.598468 
L 277.921281 170.222476 
L 278.296235 166.808473 
L 278.46972 163.382246 
L 278.441425 159.973277 
L 278.215917 156.61463 
L 277.802574 153.342824 
L 277.215491 150.197721 
L 276.473381 147.222408 
L 275.599548 144.45729 
L 274.623452 141.92003 
L 273.575767 139.630834 
L 272.483722 137.60613 
L 271.370993 135.857538 
L 270.257739 134.391985 
L 269.160644 133.211839 
L 268.092972 132.315037 
L 267.064619 131.695204 
L 266.082178 131.341781 
L 265.148989 131.240125 
L 264.261183 131.373656 
L 263.401928 131.728034 
L 262.552974 132.28927 
L 261.260648 133.488625 
L 259.895771 135.075623 
L 256.738976 139.227173 
L 253.445918 143.460518 
L 250.252804 147.218978 
L 246.526993 151.228799 
L 242.288267 155.399056 
L 237.605881 159.618865 
L 232.598263 163.758163 
L 227.41608 167.721995 
L 222.222658 171.441539 
L 215.935537 175.654334 
L 210.084914 179.319122 
L 202.923625 183.516866 
L 192.162851 189.729742 
L 189.908397 191.343956 
L 188.551358 192.589724 
L 187.569452 193.847166 
L 187.059765 194.822671 
L 186.735936 195.841486 
L 186.594259 196.914681 
L 186.629478 198.049839 
L 186.939587 199.666307 
L 187.531284 201.399627 
L 188.378859 203.238346 
L 189.751242 205.650986 
L 191.422947 208.133624 
L 193.343856 210.607622 
L 195.448239 212.985643 
L 197.654369 215.172586 
L 199.864859 217.066082 
L 201.967154 218.563324 
L 203.859151 219.620174 
L 205.176376 220.135342 
L 206.288571 220.345708 
L 206.974037 220.297604 
L 207.522988 220.068717 
L 207.928873 219.655349 
L 208.186621 219.053942 
L 208.292608 218.261032 
L 208.20618 216.911654 
L 207.800856 214.804872 
L 206.968358 211.722729 
L 205.21961 206.192537 
L 202.362904 197.902693 
L 200.97272 194.440286 
L 199.657489 191.73283 
L 198.106475 189.099488 
L 196.288887 186.551865 
L 194.192903 184.09646 
L 191.825766 181.734737 
L 189.211277 179.462855 
L 186.337183 177.263791 
L 182.480092 174.592441 
L 171.119626 166.917516 
L 168.688191 164.934208 
L 167.179406 163.464128 
L 165.98304 162.005636 
L 165.091024 160.557318 
L 164.487205 159.119226 
L 164.153199 157.690265 
L 164.06833 156.268166 
L 164.209598 154.849455 
L 164.551664 153.429428 
L 165.271956 151.523539 
L 166.4781 149.102651 
L 169.70426 142.900952 
L 170.92952 140.021889 
L 172.036099 136.887691 
L 173.012093 133.434803 
L 174.072506 128.806787 
L 176.250787 118.900087 
L 177.365079 114.905733 
L 178.40834 111.822056 
L 179.675675 108.698433 
L 181.207911 105.573139 
L 183.045243 102.490293 
L 184.459218 100.48306 
L 186.038027 98.532979 
L 187.7932 96.657405 
L 189.730489 94.87366 
L 191.849224 93.198309 
L 194.155534 91.649469 
L 196.652364 90.24493 
L 199.339262 89.002124 
L 202.212389 87.938127 
L 205.264524 87.069667 
L 208.485071 86.413128 
L 211.86006 85.984552 
L 215.372152 85.799644 
L 219.000637 85.873768 
L 222.721438 86.221951 
L 226.508564 86.85715 
L 230.342443 87.776083 
L 234.195248 88.974638 
L 238.03804 90.446973 
L 241.842823 92.18376 
L 245.582529 94.172225 
L 249.230998 96.396175 
L 252.762953 98.836025 
L 256.153966 101.468818 
L 259.380426 104.268234 
L 262.419496 107.204586 
L 265.249066 110.244811 
L 267.847775 113.352472 
L 270.21068 116.495163 
L 272.341706 119.643739 
L 274.238329 122.768946 
L 275.89823 125.844929 
L 277.319319 128.849213 
L 278.499761 131.762688 
L 279.438007 134.569615 
L 280.132828 137.257637 
L 280.583351 139.817799 
L 280.7891 142.244575 
L 280.753689 144.537666 
L 280.480338 146.707201 
L 279.968881 148.765835 
L 279.221276 150.726114 
L 278.241641 152.600494 
L 277.036278 154.401346 
L 275.613699 156.140971 
L 273.98464 157.831595 
L 271.182879 160.302241 
L 267.994608 162.730762 
L 264.458331 165.15705 
L 259.28801 168.439859 
L 249.379451 174.38145 
L 224.453694 188.963914 
L 216.755516 193.265498 
L 212.1374 195.642959 
L 208.202742 197.42046 
L 205.471357 198.43234 
L 203.043717 199.111803 
L 200.862441 199.476938 
L 198.876311 199.553288 
L 197.04101 199.375305 
L 195.319087 198.986289 
L 193.279172 198.280997 
L 190.929805 197.20086 
L 187.909636 195.518135 
L 182.166092 192.240079 
L 180.381718 191.486356 
L 179.454976 191.299444 
L 178.967046 191.40303 
L 178.767408 191.645576 
L 178.722841 192.040967 
L 178.921372 192.82192 
L 179.57424 194.223032 
L 180.955166 196.565874 
L 183.387156 200.193241 
L 186.654031 204.627294 
L 190.040209 208.832025 
L 193.204686 212.413223 
L 196.591192 215.888146 
L 199.389722 218.486324 
L 202.205763 220.844708 
L 204.979263 222.898983 
L 207.647705 224.592565 
L 210.14639 225.876809 
L 212.407026 226.721585 
L 214.360526 227.172391 
L 215.598852 227.271762 
L 216.63102 227.17766 
L 217.452299 226.899139 
L 218.063353 226.444336 
L 218.470191 225.820446 
L 218.684095 225.033688 
L 218.721521 224.089266 
L 218.534789 222.591771 
L 218.00584 220.352362 
L 216.445442 214.17329 
L 215.889903 210.93665 
L 215.627735 208.240194 
L 215.57711 205.511655 
L 215.773079 202.818678 
L 216.213685 200.235556 
L 216.863105 197.826455 
L 217.687692 195.640336 
L 218.657612 193.711462 
L 219.746683 192.059505 
L 220.931229 190.690471 
L 222.177332 189.60529 
L 223.459238 188.789173 
L 224.762959 188.221937 
L 226.083935 187.881122 
L 227.427088 187.741864 
L 229.149795 187.814617 
L 230.943277 188.118049 
L 233.243571 188.726434 
L 237.171426 190.025649 
L 245.150766 192.691083 
L 250.348644 194.20235 
L 255.585502 195.520676 
L 260.534172 196.577705 
L 266.005963 197.510586 
L 270.728489 198.104667 
L 275.71218 198.506219 
L 280.898315 198.657612 
L 284.876204 198.569861 
L 288.877844 198.28708 
L 292.864862 197.797187 
L 296.799834 197.095001 
L 300.638746 196.183922 
L 304.33072 195.075933 
L 307.817697 193.791664 
L 311.034077 192.360518 
L 313.906313 190.820855 
L 316.352477 189.220252 
L 318.315027 187.611594 
L 319.337029 186.54495 
L 320.108676 185.483138 
L 320.615056 184.425848 
L 320.8443 183.372347 
L 320.787667 182.321481 
L 320.439644 181.271676 
L 319.798055 180.220942 
L 318.864188 179.166867 
L 317.642919 178.10663 
L 316.142855 177.036999 
L 313.398384 175.406885 
L 310.130604 173.73832 
L 306.448771 172.065074 
L 302.450337 170.43871 
L 298.222604 168.911113 
L 293.842079 167.534192 
L 289.37383 166.359603 
L 284.870914 165.438501 
L 280.372553 164.822653 
L 277.377501 164.603618 
L 274.379134 164.547013 
L 271.373858 164.657941 
L 268.359878 164.939109 
L 265.337201 165.390849 
L 262.307628 166.011147 
L 259.274754 166.795661 
L 254.731512 168.265197 
L 250.214605 170.057518 
L 245.730325 172.128494 
L 241.314101 174.417962 
L 237.006422 176.868286 
L 231.500902 180.294163 
L 226.353764 183.797387 
L 221.658823 187.276725 
L 217.50994 190.643757 
L 213.967257 193.825159 
L 211.000465 196.789643 
L 208.591329 199.527065 
L 206.70639 202.026784 
L 205.295221 204.277595 
L 204.290301 206.267873 
L 203.474866 208.37118 
L 202.923774 210.33565 
L 202.482553 212.612118 
L 202.380496 212.490835 
L 201.576741 210.963089 
L 198.820605 205.76092 
L 196.223208 201.367616 
L 194.101691 198.16257 
L 192.026565 195.38399 
L 189.650736 192.551636 
L 186.99943 189.723993 
L 184.141304 186.976344 
L 180.589956 183.908182 
L 176.492028 180.706395 
L 169.358174 175.200401 
L 168.595122 174.366325 
L 168.504186 174.067466 
L 168.672957 173.93393 
L 169.074708 173.989905 
L 169.931579 174.39485 
L 171.110331 175.211945 
L 172.569505 176.467137 
L 174.738498 178.671034 
L 177.249739 181.576466 
L 179.455473 184.404892 
L 182.411643 188.575941 
L 187.671881 196.519389 
L 193.652963 205.447759 
L 196.923254 209.975082 
L 199.499272 213.268596 
L 202.184582 216.407069 
L 204.953804 219.342393 
L 207.778427 222.033935 
L 210.630835 224.449127 
L 213.484363 226.563524 
L 216.313361 228.360848 
L 219.093244 229.832997 
L 221.800533 230.980046 
L 224.412894 231.81022 
L 226.906191 232.341208 
L 229.255716 232.609551 
L 231.45349 232.656314 
L 233.49672 232.51688 
L 235.983894 232.091601 
L 238.21503 231.441193 
L 240.219087 230.601425 
L 242.037768 229.61324 
L 244.127731 228.222292 
L 246.505887 226.34155 
L 249.34339 223.77442 
L 252.521198 220.589068 
L 256.296508 216.458355 
L 260.11577 211.905978 
L 263.700646 207.249107 
L 266.784299 202.897828 
L 269.160741 199.262589 
L 271.522568 195.293566 
L 273.8007 190.991782 
L 275.920481 186.374093 
L 277.206494 183.135557 
L 278.361962 179.7842 
L 279.361238 176.336435 
L 280.177895 172.81158 
L 280.784836 169.231678 
L 281.165579 165.612194 
L 281.323678 161.981529 
L 281.266772 158.377118 
L 281.006143 154.835156 
L 280.556635 151.390517 
L 279.936568 148.076689 
L 279.167635 144.925726 
L 278.274806 141.96821 
L 277.286221 139.233239 
L 275.69289 135.608074 
L 274.072837 132.63255 
L 272.534644 130.349411 
L 271.129358 128.718019 
L 269.887537 127.700146 
L 269.156183 127.341962 
L 268.500219 127.224878 
L 267.913679 127.335204 
L 267.386748 127.658714 
L 266.905814 128.180653 
L 266.232657 129.298869 
L 265.062302 131.9349 
L 263.187336 136.166258 
L 261.444485 139.494025 
L 259.804682 142.187736 
L 257.844865 145.017687 
L 255.545798 147.970598 
L 252.902271 151.027637 
L 249.92405 154.163758 
L 246.635884 157.347736 
L 243.077504 160.542229 
L 238.008521 164.743576 
L 232.709397 168.810892 
L 227.356666 172.66538 
L 220.828963 177.07694 
L 214.708387 180.950456 
L 208.141447 184.828791 
L 201.737196 188.330567 
L 189.349369 194.931218 
L 188.101268 195.997978 
L 187.412181 196.878872 
L 186.987833 197.812663 
L 186.815614 198.819472 
L 186.879919 199.913577 
L 187.162069 201.103337 
L 187.790065 202.723972 
L 188.706303 204.472051 
L 190.15101 206.686974 
L 191.904064 208.946397 
L 193.862793 211.135287 
L 195.893398 213.112505 
L 197.874054 214.757842 
L 199.714063 215.987873 
L 201.070445 216.636619 
L 201.997099 216.875545 
L 202.748541 216.839819 
L 203.177405 216.618672 
L 203.474996 216.220034 
L 203.63165 215.640597 
L 203.641752 214.618266 
L 203.437517 213.320557 
L 202.899273 211.331137 
L 201.870236 208.455562 
L 200.194537 204.541391 
L 198.070355 200.201153 
L 195.927499 196.321371 
L 194.281971 193.730572 
L 192.414398 191.156401 
L 190.308442 188.615283 
L 187.970681 186.125314 
L 185.430789 183.706433 
L 182.054853 180.816456 
L 177.882287 177.580978 
L 169.867812 171.469168 
L 167.721833 169.490536 
L 166.53007 168.070579 
L 165.973533 167.104248 
L 165.718567 166.226422 
L 165.741655 165.446294 
L 166.004915 164.772887 
L 166.473688 164.214215 
L 167.116662 163.777252 
L 167.905936 163.467908 
L 169.144184 163.262141 
L 170.551492 163.300071 
L 172.073178 163.593555 
L 173.627825 164.16008 
L 175.168723 165.004793 
L 176.666801 166.134281 
L 178.109818 167.55707 
L 179.502365 169.283702 
L 180.865348 171.326589 
L 182.211864 173.693145 
L 183.904703 177.121568 
L 186.409636 182.803941 
L 191.107483 193.621855 
L 193.723439 199.10851 
L 196.087504 203.580437 
L 198.703547 208.010207 
L 200.826977 211.241987 
L 203.078843 214.348135 
L 205.444527 217.286337 
L 207.904164 220.015179 
L 210.432652 222.494217 
L 212.999688 224.684033 
L 215.57434 226.554867 
L 218.127223 228.113417 
L 220.626769 229.375495 
L 223.045829 230.357714 
L 225.36172 231.077459 
L 227.556215 231.552841 
L 229.615512 231.802669 
L 231.530219 231.846418 
L 233.294126 231.707657 
L 235.412926 231.302509 
L 237.283808 230.716512 
L 239.315644 229.815508 
L 241.071402 228.787401 
L 242.934639 227.411253 
L 245.255407 225.387356 
L 249.496741 221.334798 
L 253.385168 217.300244 
L 257.237168 212.951244 
L 260.450858 209.003016 
L 263.2588 205.262379 
L 266.218823 200.957515 
L 268.484367 197.358778 
L 270.715558 193.442333 
L 272.839329 189.20854 
L 274.781803 184.675133 
L 275.939398 181.502953 
L 276.961413 178.227299 
L 277.825918 174.86595 
L 278.511109 171.439868 
L 278.995357 167.97311 
L 279.261138 164.488538 
L 279.311553 161.010565 
L 279.156659 157.577185 
L 278.809312 154.225 
L 278.285217 150.988614 
L 277.60285 147.900572 
L 276.78337 144.991332 
L 275.850523 142.289243 
L 274.830554 139.82055 
L 273.752122 137.609417 
L 272.093273 134.823492 
L 270.473346 132.71039 
L 269.439403 131.661495 
L 268.450805 130.888561 
L 267.511136 130.380624 
L 266.620719 130.126042 
L 265.776671 130.112552 
L 264.972962 130.327308 
L 264.200461 130.756903 
L 263.446972 131.387391 
L 262.317974 132.676243 
L 260.706622 134.947967 
L 255.909491 141.963618 
L 253.013945 145.70706 
L 250.479009 148.668123 
L 247.622714 151.724973 
L 243.359714 155.900913 
L 238.660378 160.118497 
L 233.636504 164.291022 
L 228.422093 168.324375 
L 223.172957 172.117454 
L 218.06501 175.565029 
L 212.080679 179.345857 
L 205.661425 183.137873 
L 197.864063 187.459208 
L 192.305774 190.595355 
L 190.084607 192.076714 
L 188.722108 193.215049 
L 187.712888 194.359873 
L 187.178257 195.245062 
L 186.8259 196.16741 
L 186.647691 197.137328 
L 186.665419 198.518107 
L 186.952864 200.008844 
L 187.497197 201.610457 
L 188.283839 203.314306 
L 189.575928 205.559404 
L 191.160387 207.879016 
L 193.351481 210.647133 
L 195.745496 213.253949 
L 198.221279 215.567188 
L 200.248537 217.175692 
L 202.150403 218.412721 
L 203.518648 219.08397 
L 204.695623 219.430614 
L 205.632473 219.444426 
L 206.168103 219.251001 
L 206.562323 218.881425 
L 206.818198 218.335863 
L 206.940142 217.615911 
L 206.904474 216.39004 
L 206.565952 214.446015 
L 205.784831 211.549116 
L 203.665497 204.94654 
L 202.153662 200.903565 
L 200.603249 197.415497 
L 198.764329 193.900139 
L 196.647981 190.436618 
L 194.296334 187.107823 
L 192.183043 184.577504 
L 189.788897 182.148318 
L 187.12606 179.80251 
L 183.480871 176.967192 
L 178.828543 173.685699 
L 171.416648 168.498116 
L 169.008285 166.522418 
L 167.055504 164.593822 
L 165.909977 163.184167 
L 165.045846 161.808125 
L 164.463557 160.465389 
L 164.157231 159.15358 
L 164.114548 157.868217 
L 164.316653 156.602671 
L 164.7381 155.348145 
L 165.571166 153.692663 
L 166.878225 151.657215 
L 171.105504 145.441114 
L 172.321946 143.184263 
L 173.351339 140.734265 
L 174.193919 138.030266 
L 174.886413 135.017385 
L 175.721174 130.19409 
L 177.076816 121.968771 
L 177.871941 118.274469 
L 178.930417 114.403417 
L 179.949678 111.423052 
L 181.217797 108.41522 
L 182.77851 105.419155 
L 183.999909 103.449552 
L 185.37688 101.518221 
L 186.917156 99.639844 
L 188.627104 97.829927 
L 190.511734 96.104806 
L 192.57471 94.481653 
L 194.818352 92.978484 
L 197.243644 91.614164 
L 199.85024 90.40842 
L 202.63646 89.381841 
L 205.593519 88.552121 
L 208.704897 87.932243 
L 211.961324 87.539036 
L 215.35052 87.386783 
L 218.856964 87.487045 
L 222.461934 87.848672 
L 226.143553 88.477806 
L 229.876828 89.377903 
L 233.633703 90.549753 
L 237.3831 91.991519 
L 241.090953 93.698777 
L 244.721007 95.664232 
L 248.249629 97.869449 
L 251.653283 100.289426 
L 254.907779 102.898961 
L 257.99175 105.67185 
L 260.886556 108.580844 
L 263.576197 111.59758 
L 266.047237 114.692513 
L 268.288745 117.834824 
L 270.292247 120.99233 
L 272.051693 124.131392 
L 273.564534 127.220638 
L 274.829655 130.241198 
L 275.844724 133.178436 
L 276.608112 136.020495 
L 277.118953 138.758342 
L 277.377199 141.385817 
L 277.38367 143.899679 
L 277.140094 146.299655 
L 276.649151 148.588482 
L 275.914505 150.771959 
L 274.941488 152.858916 
L 273.741415 154.862168 
L 272.321009 156.798363 
L 270.687668 158.682671 
L 268.851304 160.528177 
L 265.74397 163.247138 
L 262.260976 165.931187 
L 258.467636 168.597738 
L 253.061435 172.137023 
L 244.537138 177.406967 
L 233.309422 184.07171 
L 223.218856 189.837312 
L 217.775226 192.739342 
L 213.038495 195.024217 
L 209.705973 196.405713 
L 206.728981 197.394151 
L 204.059538 198.008658 
L 201.648481 198.282959 
L 199.445487 198.265248 
L 197.398531 198.011654 
L 195.460376 197.552543 
L 193.140207 196.729063 
L 190.895442 195.690141 
L 187.428662 193.79339 
L 181.598577 190.574838 
L 179.479328 189.613965 
L 178.347618 189.281012 
L 177.730366 189.279978 
L 177.457124 189.449318 
L 177.348389 189.771622 
L 177.409106 190.269813 
L 177.760819 191.237644 
L 178.645739 192.970058 
L 180.370865 195.827518 
L 182.819096 199.473002 
L 185.973486 203.750565 
L 189.748259 208.447374 
L 193.253838 212.471943 
L 196.235987 215.618236 
L 199.323645 218.596781 
L 202.462079 221.321494 
L 205.59083 223.714706 
L 208.643962 225.707477 
L 210.841585 226.902842 
L 212.922658 227.833149 
L 215.458737 228.697822 
L 217.667305 229.168807 
L 219.505393 229.281938 
L 220.6251 229.151603 
L 221.518025 228.850746 
L 222.185868 228.390708 
L 222.635917 227.781714 
L 222.880972 227.032851 
L 222.935532 226.157317 
L 222.737301 224.819978 
L 222.153227 222.863389 
L 219.753655 215.736168 
L 219.210778 213.317761 
L 218.887683 210.778819 
L 218.845232 208.176391 
L 219.00582 206.23091 
L 219.334876 204.325541 
L 219.834598 202.488633 
L 220.506291 200.746013 
L 221.350361 199.121081 
L 222.366307 197.634897 
L 223.552695 196.306242 
L 224.896379 195.150438 
L 226.378222 194.174996 
L 227.989277 193.382896 
L 229.724074 192.773855 
L 231.5806 192.344282 
L 233.560297 192.087238 
L 236.400414 191.994591 
L 239.480619 192.161775 
L 242.818509 192.559644 
L 247.384517 193.324673 
L 267.80973 197.074642 
L 273.15248 197.710585 
L 278.704265 198.109007 
L 282.963717 198.210379 
L 287.265915 198.112517 
L 291.569884 197.790315 
L 295.827961 197.222353 
L 299.987003 196.41098 
L 304.002757 195.373438 
L 307.827476 194.132741 
L 311.408083 192.718068 
L 314.685728 191.164932 
L 317.595326 189.515414 
L 320.06509 187.81846 
L 322.029213 186.127576 
L 323.041504 185.016349 
L 323.796106 183.916593 
L 324.2784 182.826074 
L 324.477187 181.741806 
L 324.384791 180.660038 
L 323.997184 179.576251 
L 323.314115 178.485149 
L 322.339252 177.380656 
L 321.080326 176.255921 
L 318.686628 174.513979 
L 315.746941 172.686683 
L 311.168635 170.149848 
L 306.072534 167.583329 
L 300.679893 165.099326 
L 295.171567 162.829645 
L 291.049469 161.357171 
L 286.969634 160.147507 
L 282.921048 159.247685 
L 280.23273 158.838358 
L 277.548775 158.591263 
L 274.865871 158.51241 
L 272.180987 158.605715 
L 269.491371 158.873026 
L 266.794549 159.314149 
L 264.086651 159.927087 
L 259.983641 161.154754 
L 255.812705 162.723437 
L 251.568433 164.596864 
L 247.26215 166.734811 
L 241.474899 169.920021 
L 235.742133 173.381059 
L 230.219328 176.988713 
L 223.762884 181.505034 
L 217.977994 185.861839 
L 213.001439 189.931969 
L 209.649372 192.927834 
L 206.860507 195.672596 
L 204.607343 198.169157 
L 202.830791 200.427968 
L 201.482212 202.460648 
L 200.513003 204.276574 
L 199.866861 205.880439 
L 199.415228 207.586763 
L 199.198415 209.405581 
L 199.259145 210.854383 
L 199.294063 211.053461 
L 199.133791 210.632527 
L 198.180152 208.624129 
L 196.434308 205.46868 
L 194.398823 202.22418 
L 192.168132 199.073453 
L 189.910425 196.262153 
L 187.325812 193.406425 
L 184.47727 190.593117 
L 181.498491 187.943962 
L 178.126919 185.254481 
L 174.458031 182.614281 
L 172.343942 181.307738 
L 171.752007 181.101735 
L 171.701952 181.229875 
L 172.013103 181.714263 
L 177.47564 188.504301 
L 182.574651 195.510669 
L 189.72997 205.295108 
L 193.832581 210.518613 
L 197.327731 214.604777 
L 200.974182 218.466695 
L 203.781521 221.147172 
L 206.626359 223.595911 
L 209.483431 225.776891 
L 212.324689 227.659638 
L 215.118496 229.219512 
L 217.827719 230.457132 
L 220.420076 231.398297 
L 222.868934 232.069069 
L 225.153016 232.494565 
L 227.256358 232.698916 
L 229.168271 232.705229 
L 230.883302 232.535573 
L 232.40052 232.212229 
L 234.115952 231.608128 
L 235.502893 230.879582 
L 236.592042 230.087044 
L 237.584644 229.071639 
L 238.230744 228.07454 
L 238.645912 226.970967 
L 238.792866 225.879191 
L 238.707088 224.917223 
L 238.489436 223.44119 
L 238.914759 223.275745 
L 241.96662 222.397833 
L 243.905826 221.526453 
L 246.086069 220.272443 
L 248.391016 218.681365 
L 250.65905 216.868416 
L 253.267455 214.489796 
L 256.224513 211.433858 
L 258.842322 208.437872 
L 261.665471 204.895379 
L 264.635374 200.778374 
L 266.901702 197.310337 
L 269.140624 193.523898 
L 271.284301 189.434378 
L 273.253067 185.064965 
L 274.427866 182.011996 
L 275.465942 178.858961 
L 276.344551 175.618235 
L 277.045725 172.306237 
L 277.556289 168.943348 
L 277.867861 165.553813 
L 277.976825 162.165628 
L 277.884295 158.810427 
L 277.596052 155.523362 
L 277.122462 152.342981 
L 276.478365 149.310766 
L 275.684844 146.457866 
L 274.77216 143.811637 
L 273.769806 141.398004 
L 272.704558 139.237588 
L 271.600469 137.345813 
L 270.478884 135.733012 
L 269.358459 134.404553 
L 268.255189 133.360963 
L 267.182452 132.598064 
L 266.151045 132.107091 
L 265.167354 131.875399 
L 264.223024 131.888676 
L 263.303897 132.131957 
L 262.395678 132.590528 
L 261.483942 133.249938 
L 260.077868 134.584638 
L 258.053729 136.936562 
L 250.699083 145.937311 
L 247.117829 149.856037 
L 243.022362 153.973079 
L 238.466622 158.168036 
L 233.553027 162.308789 
L 228.422389 166.314776 
L 223.239191 170.100152 
L 216.907375 174.418365 
L 210.959089 178.202712 
L 203.617746 182.569756 
L 192.466429 189.078806 
L 190.111368 190.76515 
L 188.688152 192.061488 
L 187.649261 193.366304 
L 187.102242 194.375749 
L 186.748953 195.428497 
L 186.585007 196.536246 
L 186.604514 197.70704 
L 186.90286 199.37318 
L 187.49212 201.158798 
L 188.345423 203.052088 
L 189.737936 205.537501 
L 191.447464 208.097858 
L 193.417475 210.651533 
L 195.575776 213.105417 
L 197.834674 215.355417 
L 198.289736 215.771047 
L 198.289736 215.771047 
" style="fill:none;stroke:#228b22;stroke-linecap:square;stroke-opacity:0.8;stroke-width:0.5;"/>
   </g>
  </g>
 </g>
 <defs>
  <clipPath id="p066a359ceb">
   <rect height="266.112" width="266.112" x="103.104" y="41.472"/>
  </clipPath>
 </defs>
</svg>
